<?xml version="1.0" encoding="utf-8"?>
<!-- Generator: Adobe Illustrator 27.5.0, SVG Export Plug-In . SVG Version: 6.00 Build 0)  -->
<svg version="1.1" id="Capa_1" xmlns="http://www.w3.org/2000/svg" xmlns:xlink="http://www.w3.org/1999/xlink" x="0px" y="0px"
	 viewBox="0 0 225 67" style="enable-background:new 0 0 225 67;" xml:space="preserve">
<style type="text/css">
	.st0{fill:url(#SVGID_1_);}
	.st1{fill:#235B4E;}
	.st2{fill:#BC955C;}
	.st3{fill:#575756;}
	.st4{fill:#D5B892;}
	.st5{fill:url(#SVGID_00000084524678222742815950000009596391495627052679_);}
	.st6{fill:url(#SVGID_00000036937858637557043020000012259240506275222951_);}
	.st7{fill:url(#SVGID_00000004531948565416429410000013870392465505634991_);}
	.st8{fill:#FFFFFF;}
	.st9{fill:#DDC9A3;}
	.st10{fill:#E9DBC2;}
	.st11{fill:url(#SVGID_00000043435481509094076120000015671407051768223876_);}
	.st12{fill:url(#SVGID_00000173846454659092813830000017580416548934787771_);}
	.st13{fill:url(#SVGID_00000057140288131525105180000016581853383700213181_);}
	.st14{fill:url(#SVGID_00000158736369330761793880000014969226659469436567_);}
</style>
<g>
	<path class="st8" d="M224.99,45.52c-0.13-1.22-1.23-2.1-2.45-1.97c-1.22,0.13-2.1,1.23-1.97,2.45c0.05,0.47,0.25,0.9,0.55,1.23
		l-8.16,13.06c-1.16-0.73-2.68-0.77-3.9,0.02c-0.19,0.12-0.37,0.26-0.53,0.42l-9.04-7.87c0.38-0.84,0.34-1.86-0.2-2.69
		c-0.84-1.3-2.57-1.68-3.88-0.86l-6.93-6.04c0.37-0.69,0.37-1.54-0.08-2.24c-0.42-0.65-1.11-1-1.82-1.02l-4.45-17.8
		c1.03-0.91,1.29-2.45,0.52-3.65c-0.85-1.31-2.6-1.69-3.91-0.85c-0.22,0.14-0.41,0.32-0.58,0.51l-21.25-6.66
		c-0.05-0.29-0.15-0.58-0.32-0.85c-0.66-1.03-2.04-1.33-3.07-0.66c-0.15,0.09-0.28,0.21-0.39,0.33l-20.91-6.55
		c-0.05-0.58-0.23-1.16-0.57-1.68c-1.09-1.69-3.34-2.17-5.03-1.09s-2.17,3.34-1.09,5.03c0.59,0.92,1.53,1.48,2.54,1.63L140,31.58
		c-0.77,0.72-0.95,1.91-0.36,2.82c0.66,1.03,2.04,1.33,3.07,0.66c1.03-0.66,1.33-2.04,0.66-3.07c-0.43-0.66-1.14-1.01-1.87-1.01
		L129.79,7.54c0.17-0.06,0.34-0.13,0.5-0.22l17.36,15.56c-0.16,0.71-0.05,1.49,0.38,2.15c0.51,0.8,1.36,1.24,2.24,1.29l8.67,18
		c-0.34,0.68-0.33,1.51,0.11,2.2c0.53,0.82,1.52,1.17,2.42,0.94l17.65,13.41c0.02,0.32,0.09,0.65,0.23,0.96
		c0.64,1.42,2.32,2.06,3.74,1.42c0.49-0.22,0.88-0.57,1.17-0.99l23.41,2.46c0.08,0.21,0.19,0.42,0.32,0.61
		c1.09,1.69,3.34,2.17,5.03,1.09c1.66-1.07,2.16-3.27,1.13-4.95l8.44-13.5c0.15,0.01,0.3,0.02,0.46,0
		C224.24,47.84,225.12,46.74,224.99,45.52z M180.75,58.09c-0.53,0.24-0.94,0.62-1.23,1.07L162.8,46.46
		c0.04-0.07,0.09-0.15,0.12-0.22l8.03-1c0.03,0.05,0.06,0.11,0.09,0.16c1.09,1.69,3.34,2.17,5.03,1.09c0.78-0.5,1.3-1.25,1.53-2.08
		l7.12-0.89c0.11,0.15,0.23,0.28,0.36,0.39l-4.32,14.19C180.76,58.09,180.75,58.09,180.75,58.09z M148.87,21.12
		c-0.15,0.1-0.28,0.21-0.4,0.32L131.52,6.25c0.19-0.25,0.34-0.53,0.45-0.82l20.52,6.43c-0.01,0.43,0.11,0.86,0.35,1.25
		c0.12,0.18,0.26,0.33,0.41,0.46l-2.84,7.1C149.89,20.67,149.35,20.81,148.87,21.12z M153.1,24.31l24.52-3.23
		c0.07,0.18,0.16,0.36,0.27,0.53c0.31,0.47,0.73,0.82,1.21,1.04l-4.73,17.14c-0.76-0.06-1.54,0.12-2.23,0.57
		c-0.05,0.03-0.09,0.07-0.14,0.1l-19.24-15.39C152.91,24.84,153.02,24.58,153.1,24.31z M184.33,41.93l-6.66,0.83
		c-0.08-0.45-0.25-0.9-0.52-1.31c-0.33-0.51-0.76-0.9-1.25-1.18l4.75-17.23l4.38,17.53C184.64,40.93,184.4,41.42,184.33,41.93z
		 M183.62,58.43c-0.33-0.25-0.71-0.43-1.11-0.51l4.1-13.48c0.21-0.01,0.42-0.04,0.62-0.11l7.12,6.2c-0.22,0.49-0.3,1.03-0.23,1.56
		L183.62,58.43z M153.09,22.68c-0.07-0.25-0.17-0.49-0.32-0.71c-0.22-0.34-0.5-0.61-0.81-0.82l2.81-7.03
		c0.39-0.01,0.78-0.12,1.13-0.35c0.26-0.17,0.48-0.39,0.64-0.64l20.41,6.4L153.09,22.68z M170.91,41.67
		c-0.33,0.61-0.48,1.3-0.44,1.99L163,44.59c-0.06-0.17-0.13-0.33-0.23-0.48c-0.56-0.87-1.64-1.21-2.58-0.89l-7.93-16.46
		L170.91,41.67z M184.57,59.74l10.24-6.18c0.91,1.03,2.44,1.28,3.63,0.52l9.19,8.01c-0.12,0.32-0.19,0.65-0.22,0.99l-22.67-2.39
		C184.74,60.37,184.68,60.05,184.57,59.74z"/>
	<g>
		<path class="st8" d="M19.22,1.6C17.08,0.53,14.62,0,11.84,0H0.18v25.65h11.65c2.79,0,5.25-0.53,7.38-1.59
			c2.14-1.06,3.8-2.56,4.98-4.49c1.19-1.93,1.78-4.18,1.78-6.74s-0.59-4.81-1.78-6.74C23.02,4.16,21.36,2.66,19.22,1.6z
			 M17.68,18.64c-1.53,1.43-3.57,2.14-6.14,2.14H6.12V4.88h5.42c2.57,0,4.61,0.71,6.14,2.14c1.53,1.43,2.29,3.37,2.29,5.81
			S19.21,17.21,17.68,18.64z"/>
		<path class="st8" d="M40.79,0L29.35,25.66h6.09l8.25-19.83l6.25,15.1c-0.84,0.51-1.7,0.88-2.7,0.51c-0.59-0.25-1.21-0.46-1.8-0.7
			c-0.36-0.25-0.8-0.39-1.27-0.39c-1.25,0-2.26,1.01-2.26,2.26c0,1.25,1.01,2.26,2.26,2.26c0.48,0,0.93-0.15,1.29-0.41
			c0.27-0.13,0.55-0.17,0.83-0.3c0.9-0.43,1.86-0.73,2.83-0.3c0.89,0.34,1.77,1.17,2.69,1.58l0.09,0.21h6.23L46.65,0H40.79z"/>
		<polygon class="st8" points="79.95,0 57.59,0 57.59,4.84 65.8,4.84 65.8,25.66 71.74,25.66 71.74,4.84 79.95,4.84 		"/>
		<path class="st8" d="M108.14,25.66L96.67,0h-5.86L79.37,25.66h6.09l8.25-19.83l4.53,10.95c-0.85,0.27-1.61,0.17-2.32-0.33
			c-0.15-0.19-0.33-0.35-0.54-0.48c0,0,0,0-0.01-0.01c0,0,0,0,0,0c-0.35-0.21-0.75-0.34-1.18-0.34c-1.25,0-2.26,1.01-2.26,2.26
			c0,1.25,1.01,2.26,2.26,2.26c0.44,0,0.84-0.13,1.18-0.34c0,0,0,0,0,0c0,0,0,0,0.01-0.01c0.21-0.13,0.39-0.29,0.54-0.48
			c0.73-0.52,1.53-0.61,2.41-0.31c0.39,0.16,0.78,0.48,1.17,0.81l2.41,5.83H108.14z"/>
	</g>
	<path class="st9" d="M23.29,65.46l-0.04-16.81l-8.33,13.91h-2.1L4.49,48.87v16.59H0V40.1h3.88l10.07,16.81l9.89-16.81h3.88
		l0.04,25.36H23.29z"/>
	<path class="st9" d="M53.62,61.51v3.95H34.6V40.1h18.51v3.95h-13.8v6.59h12.24v3.88H39.31v6.99H53.62z M45.75,33.07h5.33l-6.3,4.96
		h-3.91L45.75,33.07z"/>
	<path class="st9" d="M82.85,40.1h4.71v25.36h-4.71V40.1z"/>
	<path class="st9" d="M99.21,64.14c-2.06-1.12-3.68-2.67-4.85-4.66c-1.17-1.98-1.76-4.21-1.76-6.7c0-2.49,0.59-4.72,1.78-6.7
		c1.18-1.98,2.81-3.53,4.87-4.65c2.06-1.12,4.38-1.68,6.94-1.68c2.08,0,3.97,0.36,5.69,1.09c1.71,0.72,3.16,1.78,4.35,3.15
		l-3.04,2.86c-1.84-1.98-4.09-2.97-6.77-2.97c-1.74,0-3.3,0.38-4.67,1.14c-1.38,0.76-2.45,1.82-3.22,3.17s-1.16,2.89-1.16,4.6
		c0,1.72,0.39,3.25,1.16,4.6c0.77,1.35,1.85,2.41,3.22,3.17c1.38,0.76,2.93,1.14,4.67,1.14c2.68,0,4.94-1,6.77-3.01l3.04,2.9
		c-1.18,1.38-2.64,2.43-4.37,3.15c-1.73,0.72-3.63,1.09-5.71,1.09C103.58,65.82,101.27,65.26,99.21,64.14z"/>
	<g>
		<path class="st3" d="M145.02,52.81c0,0.24-0.01,0.47-0.02,0.7c-0.01,0.21-0.03,0.42-0.05,0.62c-0.01,0.15-0.03,0.3-0.06,0.44
			c-0.02,0.17-0.05,0.34-0.08,0.51c-0.03,0.16-0.06,0.33-0.1,0.49c-0.01,0.05-0.02,0.1-0.03,0.15c-0.03,0.15-0.07,0.3-0.11,0.44
			c-0.02,0.1-0.05,0.2-0.08,0.29c-0.03,0.12-0.07,0.24-0.11,0.36c-0.03,0.11-0.07,0.21-0.11,0.31c-0.04,0.12-0.08,0.24-0.13,0.36
			c-0.03,0.08-0.06,0.16-0.09,0.23l-0.01,0.01c-0.01,0.04-0.03,0.08-0.05,0.12c-0.03,0.06-0.05,0.12-0.08,0.17
			c-0.06,0.13-0.11,0.26-0.18,0.39c-0.37,0.76-0.8,1.49-1.31,2.17c-0.09,0.12-0.18,0.24-0.28,0.35c-0.12,0.15-0.25,0.3-0.38,0.45
			c-0.06,0.07-0.11,0.13-0.17,0.19c-0.07,0.08-0.15,0.16-0.23,0.24c-0.01,0.02-0.03,0.04-0.05,0.06c-0.06,0.06-0.12,0.12-0.17,0.18
			c-0.03,0.03-0.06,0.06-0.1,0.09c-0.01,0.01-0.02,0.02-0.03,0.03c-0.04,0.05-0.09,0.1-0.14,0.13c-0.08,0.08-0.17,0.16-0.24,0.23
			c-0.03,0.02-0.06,0.04-0.08,0.07c-0.02,0.02-0.04,0.03-0.06,0.05c-0.07,0.06-0.14,0.12-0.21,0.18c-0.03,0.02-0.06,0.05-0.1,0.07
			c-0.03,0.03-0.06,0.05-0.09,0.07c-0.02,0.02-0.04,0.03-0.06,0.05c-0.04,0.03-0.07,0.06-0.1,0.07c-0.01,0.01-0.02,0.02-0.03,0.02
			c-0.08,0.06-0.16,0.12-0.25,0.19c-0.01,0.01-0.02,0.02-0.03,0.02c-0.08,0.06-0.16,0.11-0.24,0.17c-0.06,0.04-0.11,0.08-0.17,0.12
			c-0.08,0.06-0.17,0.11-0.26,0.16c-0.08,0.06-0.16,0.11-0.24,0.16c-0.01,0.01-0.02,0.01-0.03,0.02c-0.48,0.29-0.98,0.55-1.5,0.78
			c-0.01,0.01-0.02,0.02-0.04,0.02c-0.14,0.06-0.28,0.12-0.43,0.17c-0.02,0.01-0.05,0.02-0.07,0.03c-0.02,0.01-0.04,0.02-0.06,0.02
			c-0.11,0.05-0.21,0.08-0.33,0.12c-0.02,0.02-0.05,0.02-0.08,0.03c-0.06,0.03-0.12,0.05-0.19,0.07c-0.1,0.03-0.19,0.06-0.28,0.08
			c-0.03,0.01-0.06,0.02-0.08,0.03c-0.1,0.03-0.19,0.06-0.28,0.08c-0.08,0.02-0.17,0.05-0.26,0.07c-0.1,0.02-0.19,0.05-0.29,0.07
			c-0.07,0.02-0.15,0.03-0.22,0.05c-0.02,0.01-0.03,0.01-0.05,0.01c-0.04,0.01-0.1,0.02-0.14,0.02c-0.08,0.02-0.16,0.03-0.24,0.04
			c-0.07,0.01-0.14,0.02-0.21,0.03c-0.11,0.02-0.22,0.03-0.33,0.05c-0.11,0.02-0.22,0.03-0.33,0.04c-0.02,0-0.04,0.01-0.06,0.01
			c-0.02,0.01-0.05,0.01-0.07,0.01c-0.07,0.01-0.14,0.01-0.21,0.02c-0.08,0.01-0.17,0.02-0.26,0.02c-0.03,0.01-0.06,0.01-0.09,0.01
			h-0.03c-0.2,0.01-0.41,0.02-0.61,0.02c-7.2,0-13.04-5.84-13.04-13.05c0-0.28,0.02-0.55,0.03-0.82c0,0,0-0.01,0-0.01
			c0-0.08,0-0.16,0.01-0.25c0.01-0.07,0.01-0.15,0.02-0.22c0.23,2.12,2.02,3.77,4.21,3.77c0.1,0,0.2-0.01,0.3-0.02
			c0.05,0.17,0.11,0.34,0.17,0.51c-0.01,0.01,0,0.01,0,0.01c0.04,0.13,0.1,0.25,0.15,0.37c0.06,0.15,0.12,0.29,0.19,0.43
			c0.04,0.08,0.07,0.16,0.12,0.24c0.06,0.12,0.13,0.25,0.2,0.37c0.1,0.17,0.2,0.34,0.32,0.51c0.07,0.11,0.15,0.22,0.23,0.33
			c0.94,1.29,2.23,2.31,3.72,2.93c1.04,0.44,2.19,0.67,3.39,0.67c5.06,0,9.12-4.25,8.8-9.38c-0.26-4.32-3.73-7.86-8.04-8.22
			c-2.44-0.21-4.68,0.58-6.38,1.99c-0.01,0-0.01,0.01-0.01,0.01c-1.5,0.6-2.57,0.18-3.14,0.15c-0.62-0.04-1.61,0.07-2.38,0.41
			c-0.13,0.06-0.26-0.08-0.19-0.2c2.36-4.16,6.95-6.9,12.15-6.59c6.48,0.39,11.77,5.61,12.21,12.09
			C145.01,52.18,145.02,52.5,145.02,52.81z"/>
		<path class="st3" d="M145.02,52.81c0,0.24-0.01,0.47-0.02,0.7c-0.01,0.21-0.03,0.42-0.05,0.62c-0.01,0.15-0.03,0.3-0.06,0.44
			c-0.02,0.17-0.05,0.34-0.08,0.51c-0.03,0.16-0.06,0.33-0.1,0.49c-0.01,0.05-0.02,0.1-0.03,0.15c-0.03,0.15-0.07,0.3-0.11,0.44
			c-0.02,0.1-0.05,0.2-0.08,0.29c-0.03,0.12-0.07,0.24-0.11,0.36c-0.03,0.11-0.07,0.21-0.11,0.31c-0.04,0.12-0.08,0.24-0.13,0.36
			c-0.03,0.08-0.06,0.16-0.09,0.23l-0.01,0.01c-0.03,0.1-0.08,0.2-0.12,0.29c-0.06,0.13-0.11,0.26-0.18,0.39
			c-0.37,0.76-0.8,1.49-1.31,2.17c-0.09,0.12-0.18,0.24-0.28,0.35c-0.12,0.15-0.25,0.3-0.38,0.45c-0.06,0.07-0.11,0.13-0.17,0.19
			c-0.04,0.05-0.08,0.1-0.12,0.14c-0.03,0.03-0.07,0.07-0.11,0.1c-0.01,0.02-0.03,0.04-0.05,0.06c-0.07,0.08-0.15,0.16-0.24,0.23
			c-0.01,0.02-0.02,0.03-0.03,0.04s-0.02,0.02-0.03,0.03c-0.04,0.05-0.1,0.09-0.14,0.13c-0.11,0.1-0.21,0.2-0.33,0.3
			c-0.02,0.02-0.04,0.03-0.06,0.05c-0.1,0.08-0.2,0.17-0.3,0.25c-0.03,0.03-0.06,0.05-0.09,0.07c-0.02,0.02-0.04,0.03-0.06,0.05
			c-0.03,0.02-0.06,0.05-0.1,0.07c-0.09,0.07-0.18,0.14-0.28,0.21c-0.01,0.01-0.02,0.02-0.03,0.02c-0.08,0.06-0.16,0.11-0.24,0.17
			c-0.06,0.04-0.11,0.08-0.17,0.12c-0.08,0.06-0.17,0.11-0.26,0.16c-0.08,0.06-0.16,0.11-0.24,0.16c-0.01,0.01-0.02,0.01-0.03,0.02
			c-0.48,0.29-0.98,0.55-1.5,0.78c-0.01,0.01-0.02,0.02-0.04,0.02c-0.14,0.06-0.28,0.12-0.43,0.17c-0.02,0.01-0.05,0.02-0.07,0.03
			c-0.02,0.01-0.04,0.02-0.06,0.02c-0.11,0.05-0.21,0.08-0.33,0.12c-0.02,0.02-0.05,0.02-0.08,0.03c-0.06,0.03-0.12,0.05-0.19,0.07
			c-0.1,0.03-0.19,0.06-0.28,0.08c-0.03,0.01-0.06,0.02-0.08,0.03c-0.1,0.03-0.19,0.06-0.28,0.08c-0.08,0.02-0.17,0.05-0.26,0.07
			c-0.1,0.02-0.19,0.05-0.29,0.07c-0.07,0.02-0.15,0.03-0.22,0.05c-0.02,0.01-0.03,0.01-0.05,0.01c-0.12,0.02-0.25,0.04-0.38,0.07
			h-0.01c-0.07,0.01-0.13,0.02-0.21,0.03c-0.11,0.02-0.22,0.03-0.33,0.05c-0.11,0.02-0.22,0.03-0.33,0.04
			c-0.02,0-0.04,0.01-0.06,0.01c-0.02,0.01-0.05,0.01-0.07,0.01c-0.07,0.01-0.14,0.01-0.21,0.02c-0.08,0.01-0.17,0.02-0.26,0.02
			c-0.03,0.01-0.06,0.01-0.09,0.01h-0.03c-0.2,0.01-0.41,0.02-0.61,0.02c-7.2,0-13.04-5.84-13.04-13.05c0-0.28,0.02-0.55,0.03-0.82
			c0,0,0-0.01,0-0.01c0-0.08,0-0.16,0.01-0.25c0.01-0.07,0.01-0.15,0.02-0.22c0.23,2.12,2.02,3.77,4.21,3.77
			c0.1,0,0.2-0.01,0.3-0.02c0.05,0.17,0.11,0.34,0.17,0.51c-0.01,0.01,0,0.01,0,0.01c0.04,0.13,0.1,0.25,0.15,0.37
			c0.06,0.15,0.12,0.29,0.19,0.43c0.04,0.08,0.07,0.16,0.12,0.24c0.06,0.12,0.13,0.25,0.2,0.37c0.1,0.17,0.2,0.34,0.32,0.51
			c0.07,0.11,0.15,0.22,0.23,0.33c0.94,1.29,2.23,2.31,3.72,2.93c1.04,0.44,2.19,0.67,3.39,0.67c5.06,0,9.12-4.25,8.8-9.38
			c-0.26-4.32-3.73-7.86-8.04-8.22c-2.44-0.21-4.68,0.58-6.38,1.99c-0.01,0-0.01,0.01-0.01,0.01c-1.5,0.6-2.57,0.18-3.14,0.15
			c-0.62-0.04-1.61,0.07-2.38,0.41c-0.13,0.06-0.26-0.08-0.19-0.2c2.36-4.16,6.95-6.9,12.15-6.59c6.48,0.39,11.77,5.61,12.21,12.09
			C145.01,52.18,145.02,52.5,145.02,52.81z"/>
	</g>
	<g>
		<path class="st9" d="M145.02,52.81c0,0.24-0.01,0.47-0.02,0.7c-0.01,0.21-0.03,0.42-0.05,0.62c-0.01,0.15-0.03,0.3-0.06,0.44
			c-0.02,0.17-0.05,0.34-0.08,0.51c-0.03,0.16-0.06,0.33-0.1,0.49c-0.01,0.05-0.02,0.1-0.03,0.15c-0.03,0.15-0.07,0.3-0.11,0.44
			c-0.02,0.1-0.05,0.2-0.08,0.29c-0.03,0.12-0.07,0.24-0.11,0.36c-0.03,0.11-0.07,0.21-0.11,0.31c-0.04,0.12-0.08,0.24-0.13,0.36
			c-0.03,0.08-0.06,0.16-0.09,0.23l-0.01,0.01c-0.01,0.04-0.03,0.08-0.05,0.12c-0.03,0.06-0.05,0.12-0.08,0.17
			c-0.06,0.13-0.11,0.26-0.18,0.39c-0.37,0.76-0.8,1.49-1.31,2.17c-0.09,0.12-0.18,0.24-0.28,0.35c-0.12,0.15-0.25,0.3-0.38,0.45
			c-0.06,0.07-0.11,0.13-0.17,0.19c-0.07,0.08-0.15,0.16-0.23,0.24c-0.01,0.02-0.03,0.04-0.05,0.06c-0.06,0.06-0.12,0.12-0.17,0.18
			c-0.03,0.03-0.06,0.06-0.1,0.09c-0.01,0.01-0.02,0.02-0.03,0.03c-0.04,0.05-0.09,0.1-0.14,0.13c-0.08,0.08-0.17,0.16-0.24,0.23
			c-0.03,0.02-0.06,0.04-0.08,0.07c-0.02,0.02-0.04,0.03-0.06,0.05c-0.07,0.06-0.14,0.12-0.21,0.18c-0.03,0.02-0.06,0.05-0.1,0.07
			c-0.03,0.03-0.06,0.05-0.09,0.07c-0.02,0.02-0.04,0.03-0.06,0.05c-0.04,0.03-0.07,0.06-0.1,0.07c-0.01,0.01-0.02,0.02-0.03,0.02
			c-0.08,0.06-0.16,0.12-0.25,0.19c-0.01,0.01-0.02,0.02-0.03,0.02c-0.08,0.06-0.16,0.11-0.24,0.17c-0.06,0.04-0.11,0.08-0.17,0.12
			c-0.08,0.06-0.17,0.11-0.26,0.16c-0.08,0.06-0.16,0.11-0.24,0.16c-0.01,0.01-0.02,0.01-0.03,0.02c-0.48,0.29-0.98,0.55-1.5,0.78
			c-0.01,0.01-0.02,0.02-0.04,0.02c-0.14,0.06-0.28,0.12-0.43,0.17c-0.02,0.01-0.05,0.02-0.07,0.03c-0.02,0.01-0.04,0.02-0.06,0.02
			c-0.11,0.05-0.21,0.08-0.33,0.12c-0.02,0.02-0.05,0.02-0.08,0.03c-0.06,0.03-0.12,0.05-0.19,0.07c-0.1,0.03-0.19,0.06-0.28,0.08
			c-0.03,0.01-0.06,0.02-0.08,0.03c-0.1,0.03-0.19,0.06-0.28,0.08c-0.08,0.02-0.17,0.05-0.26,0.07c-0.1,0.02-0.19,0.05-0.29,0.07
			c-0.07,0.02-0.15,0.03-0.22,0.05c-0.02,0.01-0.03,0.01-0.05,0.01c-0.04,0.01-0.1,0.02-0.14,0.02c-0.08,0.02-0.16,0.03-0.24,0.04
			c-0.07,0.01-0.14,0.02-0.21,0.03c-0.11,0.02-0.22,0.03-0.33,0.05c-0.11,0.02-0.22,0.03-0.33,0.04c-0.02,0-0.04,0.01-0.06,0.01
			c-0.02,0.01-0.05,0.01-0.07,0.01c-0.07,0.01-0.14,0.01-0.21,0.02c-0.08,0.01-0.17,0.02-0.26,0.02c-0.03,0.01-0.06,0.01-0.09,0.01
			h-0.03c-0.2,0.01-0.41,0.02-0.61,0.02c-7.2,0-13.04-5.84-13.04-13.05c0-0.28,0.02-0.55,0.03-0.82c0,0,0-0.01,0-0.01
			c0-0.08,0-0.16,0.01-0.25c0.01-0.07,0.01-0.15,0.02-0.22c0.23,2.12,2.02,3.77,4.21,3.77c0.1,0,0.2-0.01,0.3-0.02
			c0.05,0.17,0.11,0.34,0.17,0.51c-0.01,0.01,0,0.01,0,0.01c0.04,0.13,0.1,0.25,0.15,0.37c0.06,0.15,0.12,0.29,0.19,0.43
			c0.04,0.08,0.07,0.16,0.12,0.24c0.06,0.12,0.13,0.25,0.2,0.37c0.1,0.17,0.2,0.34,0.32,0.51c0.07,0.11,0.15,0.22,0.23,0.33
			c0.94,1.29,2.23,2.31,3.72,2.93c1.04,0.44,2.19,0.67,3.39,0.67c5.06,0,9.12-4.25,8.8-9.38c-0.26-4.32-3.73-7.86-8.04-8.22
			c-2.44-0.21-4.68,0.58-6.38,1.99c-0.01,0-0.01,0.01-0.01,0.01c-1.5,0.6-2.57,0.18-3.14,0.15c-0.62-0.04-1.61,0.07-2.38,0.41
			c-0.13,0.06-0.26-0.08-0.19-0.2c2.36-4.16,6.95-6.9,12.15-6.59c6.48,0.39,11.77,5.61,12.21,12.09
			C145.01,52.18,145.02,52.5,145.02,52.81z"/>
		<path class="st10" d="M123.5,55.23c-0.1,0.01-0.2,0.02-0.31,0.02c-2.18,0-3.97-1.65-4.2-3.77c-0.04,0.43-0.06,0.86-0.06,1.3
			c0,7.21,5.84,13.05,13.05,13.05c2.99,0,5.75-1.01,7.95-2.7c0.22-0.17,2.97-2.25,4.12-5.39c-4.17,4.43-10.29,5.64-15.4,3.22
			C126.31,59.84,124.32,58.06,123.5,55.23z"/>
	</g>
	<g>
		<path class="st10" d="M78.18,65.46h-3.15c-0.3,0-0.58-0.14-0.75-0.39l-5.35-7.5l2.69-3.64L78.93,64
			C79.37,64.6,78.93,65.46,78.18,65.46z"/>
	</g>
	<polygon class="st9" points="70.27,52.54 67.58,56.23 60.86,65.46 55.5,65.46 64.99,52.61 56.01,40.1 61.33,40.1 67.69,48.95 	"/>
	<path class="st2" d="M78.15,41.72l-6.55,8.97l-2.68-3.41l5-6.77c0.19-0.26,0.5-0.41,0.82-0.41h2.58
		C78.16,40.1,78.64,41.05,78.15,41.72z"/>
	<path class="st10" d="M78.15,41.72l-6.55,8.97l-2.68-3.41l5-6.77c0.19-0.26,0.5-0.41,0.82-0.41h2.58
		C78.16,40.1,78.64,41.05,78.15,41.72z"/>
	<circle class="st10" cx="123.2" cy="51.95" r="4.23"/>
</g>
</svg>
