<?xml version="1.0" encoding="UTF-8" standalone="no"?>
<svg
   width="250pt"
   height="250pt"
   viewBox="0 0 250 250"
   version="1.1"
   id="svg4930"
   sodipodi:docname="logo.svg"
   inkscape:export-filename="../Downloads/2224648f-a81a-4099-9a38-0edaf188a642.png"
   inkscape:export-xdpi="100"
   inkscape:export-ydpi="100"
   inkscape:version="1.4 (1:1.4+202410161351+e7c3feb100)"
   xmlns:inkscape="http://www.inkscape.org/namespaces/inkscape"
   xmlns:sodipodi="http://sodipodi.sourceforge.net/DTD/sodipodi-0.dtd"
   xmlns="http://www.w3.org/2000/svg"
   xmlns:svg="http://www.w3.org/2000/svg"
   xmlns:rdf="http://www.w3.org/1999/02/22-rdf-syntax-ns#"
   xmlns:cc="http://creativecommons.org/ns#"
   xmlns:dc="http://purl.org/dc/elements/1.1/">
  <metadata
     id="metadata4936">
    <rdf:RDF>
      <cc:Work
         rdf:about="">
        <dc:format>image/svg+xml</dc:format>
        <dc:type
           rdf:resource="http://purl.org/dc/dcmitype/StillImage" />
      </cc:Work>
    </rdf:RDF>
  </metadata>
  <defs
     id="defs4934" />
  <sodipodi:namedview
     pagecolor="#ffffff"
     bordercolor="#000000"
     borderopacity="0.25"
     objecttolerance="10"
     gridtolerance="10"
     guidetolerance="10"
     inkscape:pageopacity="0"
     inkscape:pageshadow="2"
     inkscape:window-width="1920"
     inkscape:window-height="1016"
     id="namedview4932"
     showgrid="false"
     inkscape:zoom="2.1409424"
     inkscape:cx="228.87117"
     inkscape:cy="202.94801"
     inkscape:window-x="0"
     inkscape:window-y="27"
     inkscape:window-maximized="1"
     inkscape:current-layer="svg4930"
     inkscape:showpageshadow="2"
     inkscape:pagecheckerboard="0"
     inkscape:deskcolor="#d1d1d1"
     inkscape:document-units="pt">
    <inkscape:grid
       id="grid7"
       units="pt"
       originx="0"
       originy="0"
       spacingx="0.99999997"
       spacingy="0.99999997"
       empcolor="#0099e5"
       empopacity="0.30196078"
       color="#0099e5"
       opacity="0.14901961"
       empspacing="5"
       enabled="true"
       visible="false" />
  </sodipodi:namedview>
  <circle
     style="display:none;fill:#ab5cab;fill-opacity:1;stroke:none;stroke-width:0.845467;stroke-dasharray:none"
     id="path8"
     cx="126.39474"
     cy="123.4726"
     r="123.2399"
     sodipodi:insensitive="true" />
  <path
     style="display:inline;fill:#005cab;fill-opacity:1;stroke:#000000;stroke-width:1.2682;stroke-dasharray:none;stroke-opacity:1"
     d="m 139.22704,30.167927 c 0,0 -23.53339,-1.89194 -32.44124,-1.444309 -7.825895,0.393261 -20.353081,1.670435 -26.757118,5.720599 -9.91894,6.273112 -11.480526,15.482383 -15.454916,26.88145 -3.677722,10.548207 -4.78405,27.989861 -1.294029,39.760133 1.954805,6.59267 5.233111,8.78523 10.791902,13.17785 6.465955,5.10946 31.550591,14.56083 31.550591,14.56083 0,0 -11.313845,-32.489203 -11.075655,-49.345136 0.16124,-11.410471 8.950125,-32.02724 8.950125,-32.02724 z"
     id="path2"
     sodipodi:nodetypes="cssssscscc" />
  <path
     style="display:inline;fill:#005cab;fill-opacity:1;stroke:#000000;stroke-width:1.2682;stroke-dasharray:none;stroke-opacity:1"
     d="m 106.51675,43.778117 c 7.39849,-8.379221 19.39214,-12.807603 30.26905,-13.428996 10.8769,-0.621392 23.3677,3.407629 30.7797,10.654053 8.72862,8.533656 9.66521,13.579352 12.85808,25.666647 1.94093,7.347786 3.03122,17.564232 4.06239,27.481174 1.02523,9.859575 2.00658,19.420185 -1.27989,26.568715 -3.24213,7.0521 -7.60856,11.80275 -15.86933,13.88499 -11.00533,2.77406 -7.24498,1.36509 -17.67868,2.29991 -10.17598,0.91172 -38.70683,-2.03978 -45.41172,-10.13048 C 92.670595,112.80586 93.454555,89.894064 94.897275,74.231474 96.064815,61.556311 99.293015,51.959435 106.51675,43.778117 Z"
     id="path1"
     sodipodi:nodetypes="sssssssssss" />
  <path
     style="display:none;fill:#005cab;fill-opacity:1;stroke:#000000;stroke-width:1.14133;stroke-dasharray:none;stroke-opacity:1"
     d="m 115.55516,127.93925 c 5.54838,0.78796 11.48323,4.18101 16.66709,5.79793 4.81148,1.50077 10.92428,0.7346 15.79425,2.45779 5.74665,2.03341 -0.21896,14.91897 -5.78157,18.27756 -6.78341,3.84264 -27.13108,-2.88421 -30.0575,-7.11667 -3.55858,-5.14673 0.17232,-19.87184 3.37773,-19.41661 z"
     id="path4"
     sodipodi:nodetypes="ssssss" />
  <path
     style="fill:#005cab;fill-opacity:1;stroke:#000000;stroke-width:1.2682;stroke-dasharray:none;stroke-opacity:1"
     d="m 58.710557,181.00738 c 6.13903,-8.03089 14.310976,-13.75292 24.215674,-18.25505 9.339787,-4.24536 22.040539,-7.55324 33.517789,-7.98744 8.11188,-0.30688 16.28226,1.14331 24.0485,3.83937 8.31249,2.88568 18.19866,6.00342 24.18769,12.90583 6.38312,7.35663 8.738,17.97425 9.98291,27.46121 1.17107,8.92443 -3.1275,38.2424 -3.1275,38.2424 0,0 -6.63948,3.61817 -16.13108,5.85939 -8.43119,1.99082 -19.37734,2.63063 -25.9184,2.68397 -8.17286,0.0666 -18.29183,-0.25519 -26.87657,-2.20206 -23.933348,-4.00783 -37.983822,-12.52145 -57.192406,-28.38557 0,0 3.484808,-21.33074 13.293393,-34.16205 z"
     id="path6"
     sodipodi:nodetypes="sssssscssscs" />
  <path
     style="fill:#000000;fill-opacity:1;stroke:#000000;stroke-width:1.2682;stroke-dasharray:none;stroke-opacity:1"
     d="m 50.492727,190.44275 -8.748196,21.7203 c 0,0 3.100603,2.87943 4.796715,4.30295 2.05504,1.72475 6.456739,5.14186 6.456739,5.14186 l 17.429673,-31.93445 z"
     id="path7"
     sodipodi:nodetypes="ccsccc" />
  <circle
     style="fill:#005cab;fill-opacity:1;stroke:#000000;stroke-width:1.2682;stroke-dasharray:none;stroke-opacity:1"
     id="path5"
     cx="64.708862"
     cy="186.50583"
     r="21.243917" />
  <path
     style="fill:#000000;fill-opacity:1;stroke:#000000;stroke-width:1.2682;stroke-dasharray:none;stroke-opacity:1"
     d="m 186.51793,188.24181 -1.91607,43.17051 c 0,0 5.65953,-3.03614 8.40511,-4.7647 2.78756,-1.75498 8.36267,-6.10681 8.36267,-6.10681 l 0.19488,-32.09069 z"
     id="path7-7"
     sodipodi:nodetypes="ccsccc" />
  <path
     style="fill:#005cab;fill-opacity:1;stroke:#000000;stroke-width:1.2682;stroke-dasharray:none;stroke-opacity:1"
     d="m 198.60685,162.23751 -2.03869,-14.83408 -14.25848,-14.25719 c 0,0 -1.99519,1.60515 -2.0212,2.73973 -0.1142,4.98013 8.31136,12.4199 8.31136,12.4199 l 1.83772,3.55811 0.96089,7.69268 z"
     id="path11"
     inkscape:export-filename="logo_test.png"
     inkscape:export-xdpi="117.02075"
     inkscape:export-ydpi="117.02075"
     sodipodi:nodetypes="cccscccc" />
  <path
     style="fill:#005cab;fill-opacity:1;stroke:#000000;stroke-width:1.2682;stroke-dasharray:none;stroke-opacity:1"
     d="m 195.76796,163.40021 -18.96907,-8.34335 -14.10128,6.04958 c 0,0 -0.53952,1.58918 0.86583,2.39384 3.78654,2.16808 12.65942,-1.65277 12.65942,-1.65277 l 16.20686,5.99904 z"
     id="path12"
     sodipodi:nodetypes="cccsccc" />
  <path
     style="fill:#005cab;fill-opacity:1;stroke:#000000;stroke-width:1.2682;stroke-dasharray:none;stroke-opacity:1"
     d="m 191.15763,170.19943 -14.63385,-5.86618 -9.02003,3.95511 c 0,0 0.44037,1.86292 1.94699,2.47239 2.14892,0.86929 7.47133,-1.04416 7.47133,-1.04416 l 10.9198,5.25231 z"
     id="path13"
     sodipodi:nodetypes="cccsccc" />
  <path
     style="fill:#005cab;fill-opacity:1;stroke:#000000;stroke-width:1.2682;stroke-dasharray:none;stroke-opacity:1"
     d="m 186.15478,177.49144 -8.05419,-4.96011 -6.98209,3.05203 c 0,0 0.81198,1.91649 2.05113,2.42977 1.44718,0.59946 4.80736,-0.54852 4.80736,-0.54852 l 5.3232,4.40905 z"
     id="path14"
     sodipodi:nodetypes="cccsccc" />
  <path
     style="fill:#005cab;fill-opacity:1;stroke:#000000;stroke-width:1.2682;stroke-dasharray:none;stroke-opacity:1"
     d="m 187.28396,157.24389 -8.2525,-3.1903 c 0,0 2.45515,-11.57678 8.2525,3.1903 z"
     id="path15" />
  <path
     style="fill:#005cab;fill-opacity:1;stroke:#000000;stroke-width:1.2682;stroke-dasharray:none;stroke-opacity:1"
     d="m 185.7123,182.2942 12.2023,-18.15069 c 0,0 3.32343,2.59651 3.37463,4.46011 0.14466,5.26523 -4.28944,10.43272 -8.82808,13.1056 -1.9457,1.14586 -6.74885,0.58498 -6.74885,0.58498 z"
     id="path19"
     sodipodi:nodetypes="ccssc" />
  <path
     style="color:#000000;font-style:normal;font-variant:normal;font-weight:normal;font-stretch:normal;font-size:medium;line-height:normal;font-family:sans-serif;font-variant-ligatures:normal;font-variant-position:normal;font-variant-caps:normal;font-variant-numeric:normal;font-variant-alternates:normal;font-variant-east-asian:normal;font-feature-settings:normal;font-variation-settings:normal;text-indent:0;text-align:start;text-decoration-line:none;text-decoration-style:solid;text-decoration-color:#000000;letter-spacing:normal;word-spacing:normal;text-transform:none;writing-mode:lr-tb;direction:ltr;text-orientation:mixed;dominant-baseline:auto;baseline-shift:baseline;text-anchor:start;white-space:normal;shape-padding:0;shape-margin:0;inline-size:0;clip-rule:nonzero;display:inline;overflow:visible;visibility:visible;isolation:auto;mix-blend-mode:normal;color-interpolation:sRGB;color-interpolation-filters:linearRGB;solid-color:#000000;solid-opacity:1;fill:#005cab;fill-opacity:1;fill-rule:nonzero;stroke:#000000;stroke-width:1.2682;stroke-linecap:butt;stroke-linejoin:miter;stroke-miterlimit:4;stroke-dasharray:none;stroke-dashoffset:0;stroke-opacity:1;color-rendering:auto;image-rendering:auto;shape-rendering:auto;text-rendering:auto;enable-background:accumulate;stop-color:#000000"
     d="m 203.04238,172.2843 c -3.18464,10.25619 -10.89437,12.34401 -11.22091,12.42819 -2.59476,0.66889 -8.03672,-0.1818 -8.03672,-0.1818 l 0.34317,10.00778 6.42108,2.39529 c 5.60976,-2.3328 8.88836,-2.61702 13.25241,-7.20226 z"
     id="path23"
     sodipodi:nodetypes="csccccc" />
  <rect
     style="fill:#ffffff;fill-opacity:1;stroke:#000000;stroke-width:2.22961;stroke-dasharray:none;stroke-opacity:1"
     id="rect9-3"
     width="28.478474"
     height="33.777527"
     x="111.17833"
     y="87.089432"
     ry="15.451423" />
  <rect
     style="fill:#ffffff;fill-opacity:1;stroke:#000000;stroke-width:2.22961;stroke-dasharray:none;stroke-opacity:1"
     id="rect9-3-3"
     width="28.478474"
     height="33.777527"
     x="148.60143"
     y="87.014496"
     ry="15.451423" />
</svg>
