<?xml version="1.0" encoding="UTF-8" standalone="no"?>
<svg
   width="80pt"
   height="80pt"
   viewBox="0 0 80 80"
   version="1.1"
   id="svg4930"
   sodipodi:docname="mini_logo.svg"
   inkscape:export-filename="../Downloads/2224648f-a81a-4099-9a38-0edaf188a642.png"
   inkscape:export-xdpi="100"
   inkscape:export-ydpi="100"
   inkscape:version="1.4 (1:1.4+202410161351+e7c3feb100)"
   xmlns:inkscape="http://www.inkscape.org/namespaces/inkscape"
   xmlns:sodipodi="http://sodipodi.sourceforge.net/DTD/sodipodi-0.dtd"
   xmlns="http://www.w3.org/2000/svg"
   xmlns:svg="http://www.w3.org/2000/svg"
   xmlns:rdf="http://www.w3.org/1999/02/22-rdf-syntax-ns#"
   xmlns:cc="http://creativecommons.org/ns#"
   xmlns:dc="http://purl.org/dc/elements/1.1/">
  <metadata
     id="metadata4936">
    <rdf:RDF>
      <cc:Work
         rdf:about="">
        <dc:format>image/svg+xml</dc:format>
        <dc:type
           rdf:resource="http://purl.org/dc/dcmitype/StillImage" />
      </cc:Work>
    </rdf:RDF>
  </metadata>
  <defs
     id="defs4934" />
  <sodipodi:namedview
     pagecolor="#ffffff"
     bordercolor="#000000"
     borderopacity="0.25"
     objecttolerance="10"
     gridtolerance="10"
     guidetolerance="10"
     inkscape:pageopacity="0"
     inkscape:pageshadow="2"
     inkscape:window-width="1920"
     inkscape:window-height="1016"
     id="namedview4932"
     showgrid="false"
     inkscape:zoom="3.8768169"
     inkscape:cx="96.212952"
     inkscape:cy="87.571843"
     inkscape:window-x="0"
     inkscape:window-y="27"
     inkscape:window-maximized="1"
     inkscape:current-layer="svg4930"
     inkscape:showpageshadow="2"
     inkscape:pagecheckerboard="0"
     inkscape:deskcolor="#d1d1d1"
     inkscape:document-units="pt">
    <inkscape:grid
       id="grid7"
       units="pt"
       originx="0"
       originy="0"
       spacingx="0.99999997"
       spacingy="0.99999997"
       empcolor="#0099e5"
       empopacity="0.30196078"
       color="#0099e5"
       opacity="0.14901961"
       empspacing="5"
       enabled="true"
       visible="false" />
  </sodipodi:namedview>
  <circle
     style="display:none;fill:#ab5cab;fill-opacity:1;stroke:none;stroke-width:0.845467;stroke-dasharray:none"
     id="path8"
     cx="126.39474"
     cy="123.4726"
     r="123.2399"
     sodipodi:insensitive="true" />
  <path
     style="display:inline;fill:#005cab;fill-opacity:1;stroke:#000000;stroke-width:0.443042;stroke-dasharray:none;stroke-opacity:1"
     d="m 47.839996,2.8470242 c 0,0 -8.221315,-0.660944 -11.333245,-0.504565 -2.733952,0.137384 -7.110285,0.583561 -9.347515,1.998473 -3.46515,2.1914919 -4.010686,5.4087219 -5.399126,9.3909498 -1.284801,3.684983 -1.671293,9.77817 -0.452065,13.890077 0.682905,2.303129 1.828171,3.069093 3.770117,4.603641 2.258861,1.784974 11.0221,5.08678 11.0221,5.08678 0,0 -3.952456,-11.350001 -3.869246,-17.238568 0.05633,-3.986212 3.126698,-11.1886159 3.126698,-11.1886159 z"
     id="path2"
     sodipodi:nodetypes="cssssscscc" />
  <path
     style="display:inline;fill:#005cab;fill-opacity:1;stroke:#000000;stroke-width:0.443042;stroke-dasharray:none;stroke-opacity:1"
     d="m 36.412759,7.6017011 c 2.58464,-2.9272549 6.774584,-4.4742959 10.574398,-4.6913779 3.799811,-0.217081 8.163432,1.190445 10.752791,3.7219599 3.049316,2.981206 3.376511,4.7439039 4.49193,8.9665619 0.678058,2.566926 1.058947,6.13601 1.419183,9.600462 0.358161,3.444412 0.700993,6.784381 -0.447125,9.281697 -1.132628,2.463629 -2.658027,4.123254 -5.543901,4.850678 -3.844677,0.969109 -2.531011,0.47689 -6.175991,0.803466 -3.554947,0.318507 -13.522109,-0.712591 -15.864442,-3.539051 -4.043953,-4.879771 -3.770079,-12.883935 -3.26607,-18.355612 0.407877,-4.428028 1.535638,-7.780667 4.059227,-10.6387839 z"
     id="path1"
     sodipodi:nodetypes="sssssssssss" />
  <path
     style="display:none;fill:#005cab;fill-opacity:1;stroke:#000000;stroke-width:1.14133;stroke-dasharray:none;stroke-opacity:1"
     d="m 115.55516,127.93925 c 5.54838,0.78796 11.48323,4.18101 16.66709,5.79793 4.81148,1.50077 10.92428,0.7346 15.79425,2.45779 5.74665,2.03341 -0.21896,14.91897 -5.78157,18.27756 -6.78341,3.84264 -27.13108,-2.88421 -30.0575,-7.11667 -3.55858,-5.14673 0.17232,-19.87184 3.37773,-19.41661 z"
     id="path4"
     sodipodi:nodetypes="ssssss" />
  <path
     style="fill:#005cab;fill-opacity:1;stroke:#000000;stroke-width:0.443042;stroke-dasharray:none;stroke-opacity:1"
     d="m 19.711816,55.542312 c 2.144651,-2.805566 4.999495,-4.804539 8.45967,-6.377344 3.262825,-1.483103 7.699793,-2.638701 11.709334,-2.790387 2.83386,-0.107208 5.688156,0.399412 8.401268,1.341272 2.903942,1.008103 6.357645,2.097276 8.449893,4.508611 2.229923,2.570015 3.052593,6.279248 3.487499,9.593487 0.409109,3.117722 -1.092583,13.35986 -1.092583,13.35986 0,0 -2.319481,1.264 -5.635342,2.04696 -2.94541,0.69549 -6.769413,0.919 -9.054511,0.93764 -2.855163,0.0233 -6.390194,-0.0892 -9.389246,-0.76928 -8.361039,-1.40013 -13.269528,-4.374334 -19.979987,-9.916414 0,0 1.217407,-7.451827 4.644005,-11.934405 z"
     id="path6"
     sodipodi:nodetypes="sssssscssscs" />
  <path
     style="fill:#000000;fill-opacity:1;stroke:#000000;stroke-width:0.443042;stroke-dasharray:none;stroke-opacity:1"
     d="m 16.840943,58.838529 -3.056155,7.587919 c 0,0 1.083186,1.005919 1.675718,1.503222 0.717921,0.602536 2.255641,1.796292 2.255641,1.796292 l 6.089002,-11.156199 z"
     id="path7"
     sodipodi:nodetypes="ccsccc" />
  <circle
     style="fill:#005cab;fill-opacity:1;stroke:#000000;stroke-width:0.443042;stroke-dasharray:none;stroke-opacity:1"
     id="path5"
     cx="21.807302"
     cy="57.463177"
     r="7.4214959" />
</svg>
