<?xml version="1.0" encoding="UTF-8"?>
<!DOCTYPE svg PUBLIC "-//W3C//DTD SVG 1.1//EN" "http://www.w3.org/Graphics/SVG/1.1/DTD/svg11.dtd">
<svg xmlns="http://www.w3.org/2000/svg" version="1.1" width="512px" height="512px" style="shape-rendering:geometricPrecision; text-rendering:geometricPrecision; image-rendering:optimizeQuality; fill-rule:evenodd; clip-rule:evenodd" xmlns:xlink="http://www.w3.org/1999/xlink">
<g><path style="opacity:0.998" fill="#90a3ad" d="M 452.5,211.5 C 452.5,285.167 452.5,358.833 452.5,432.5C 452.667,444.505 452.5,456.505 452,468.5C 449.467,482.033 441.634,490.866 428.5,495C 313.167,495.667 197.833,495.667 82.5,495C 72.16,491.993 64.9933,485.493 61,475.5C 59.5502,460.905 59.0502,446.239 59.5,431.5C 59.5,358.167 59.5,284.833 59.5,211.5C 59.3334,197.496 59.5001,183.496 60,169.5C 64.258,155.908 73.4247,148.074 87.5,146C 139.166,145.5 190.832,145.333 242.5,145.5C 242.833,127.821 242.5,110.154 241.5,92.5C 225.349,85.7076 216.682,73.541 215.5,56C 219.981,25.2091 237.647,12.5424 268.5,18C 288.584,26.9926 297.084,42.4926 294,64.5C 290.283,77.7173 282.117,87.0506 269.5,92.5C 268.5,110.154 268.167,127.821 268.5,145.5C 322.538,145.021 376.538,145.521 430.5,147C 442.997,151.486 450.163,160.32 452,173.5C 452.5,186.162 452.667,198.829 452.5,211.5 Z"/></g>
<g><path style="opacity:1" fill="#c52a2a" d="M 250.5,39.5 C 266.667,39.1574 273.167,46.8241 270,62.5C 263.553,72.067 255.386,73.9003 245.5,68C 236.233,56.561 237.9,47.061 250.5,39.5 Z"/></g>
<g><path style="opacity:0.996" fill="#c62727" d="M 59.5,211.5 C 59.5,284.833 59.5,358.167 59.5,431.5C 38.2293,434.795 24.0627,426.461 17,406.5C 16.3333,349.833 16.3333,293.167 17,236.5C 20.6104,223.223 29.1104,215.056 42.5,212C 48.1569,211.501 53.8236,211.334 59.5,211.5 Z"/></g>
<g><path style="opacity:0.996" fill="#c62727" d="M 452.5,211.5 C 470.672,208.37 484.172,214.703 493,230.5C 493.667,232.5 494.333,234.5 495,236.5C 495.667,293.167 495.667,349.833 495,406.5C 492.089,417.745 485.256,425.578 474.5,430C 467.261,431.655 459.928,432.488 452.5,432.5C 452.5,358.833 452.5,285.167 452.5,211.5 Z"/></g>
<g><path style="opacity:1" fill="#5d5e5e" d="M 194.5,223.5 C 193.527,225.948 193.194,228.615 193.5,231.5C 177.241,221.858 161.241,222.191 145.5,232.5C 145.806,229.615 145.473,226.948 144.5,224.5C 155.71,216.79 168.043,214.624 181.5,218C 186.22,219.176 190.554,221.01 194.5,223.5 Z"/></g>
<g><path style="opacity:1" fill="#616162" d="M 357.5,220.5 C 357.5,223.167 357.5,225.833 357.5,228.5C 345.961,223.633 334.295,223.299 322.5,227.5C 322.802,224.941 322.468,222.607 321.5,220.5C 326.717,217.781 332.383,216.447 338.5,216.5C 345.253,216.453 351.586,217.787 357.5,220.5 Z"/></g>
<g><path style="opacity:1" fill="#f0f0f0" d="M 193.5,231.5 C 213.157,247.88 216.991,267.547 205,290.5C 202.675,292.501 200.842,294.834 199.5,297.5C 187.764,307.189 174.431,310.522 159.5,307.5C 147.844,303.836 138.844,296.836 132.5,286.5C 123.444,265.09 127.777,247.09 145.5,232.5C 161.241,222.191 177.241,221.858 193.5,231.5 Z"/></g>
<g><path style="opacity:1" fill="#efefef" d="M 357.5,228.5 C 368.008,233.671 375.341,241.671 379.5,252.5C 384.203,269.634 380.536,284.634 368.5,297.5C 351.154,310.739 333.154,311.739 314.5,300.5C 298.719,287.559 293.886,271.225 300,251.5C 304.632,240.705 312.132,232.705 322.5,227.5C 334.295,223.299 345.961,223.633 357.5,228.5 Z"/></g>
<g><path style="opacity:1" fill="#fdfdfd" d="M 166.5,228.5 C 182.219,228.109 194.385,234.442 203,247.5C 212.412,267.937 208.245,285.104 190.5,299C 169.8,309.281 152.3,305.448 138,287.5C 127.306,266.111 131.473,248.278 150.5,234C 155.715,231.429 161.048,229.596 166.5,228.5 Z"/></g>
<g><path style="opacity:1" fill="#fdfdfd" d="M 334.5,228.5 C 365.374,229.869 379.207,245.869 376,276.5C 368.779,297.037 354.279,306.203 332.5,304C 309.808,297.789 299.641,282.956 302,259.5C 306.564,242.432 317.398,232.099 334.5,228.5 Z"/></g>
<g><path style="opacity:1" fill="#494949" d="M 357.5,220.5 C 367.248,223.87 374.915,229.87 380.5,238.5C 379.514,242.97 379.181,247.637 379.5,252.5C 375.341,241.671 368.008,233.671 357.5,228.5C 357.5,225.833 357.5,223.167 357.5,220.5 Z"/></g>
<g><path style="opacity:1" fill="#3e3f3f" d="M 144.5,224.5 C 145.473,226.948 145.806,229.615 145.5,232.5C 127.777,247.09 123.444,265.09 132.5,286.5C 132.817,290.702 132.483,294.702 131.5,298.5C 121.54,285.862 118.04,271.528 121,255.5C 124.52,241.75 132.353,231.416 144.5,224.5 Z"/></g>
<g><path style="opacity:1" fill="#404141" d="M 321.5,220.5 C 322.468,222.607 322.802,224.941 322.5,227.5C 312.132,232.705 304.632,240.705 300,251.5C 293.886,271.225 298.719,287.559 314.5,300.5C 314.806,303.385 314.473,306.052 313.5,308.5C 295.547,297.256 287.714,280.922 290,259.5C 293.392,240.697 303.892,227.697 321.5,220.5 Z"/></g>
<g><path style="opacity:1" fill="#414141" d="M 194.5,223.5 C 216.092,237.083 223.925,256.416 218,281.5C 214.711,291.098 209.211,299.098 201.5,305.5C 199.631,303.365 198.964,300.698 199.5,297.5C 200.842,294.834 202.675,292.501 205,290.5C 216.991,267.547 213.157,247.88 193.5,231.5C 193.194,228.615 193.527,225.948 194.5,223.5 Z"/></g>
<g><path style="opacity:1" fill="#3c3d3d" d="M 380.5,238.5 C 392.788,258.337 392.288,278.004 379,297.5C 375.902,301.107 372.402,304.107 368.5,306.5C 368.5,303.5 368.5,300.5 368.5,297.5C 380.536,284.634 384.203,269.634 379.5,252.5C 379.181,247.637 379.514,242.97 380.5,238.5 Z"/></g>
<g><path style="opacity:1" fill="#c52929" d="M 253.5,292.5 C 254.873,292.343 256.207,292.51 257.5,293C 265.381,306.594 272.881,320.427 280,334.5C 280.825,336.701 280.325,338.534 278.5,340C 262.592,340.824 246.759,340.657 231,339.5C 230.333,337.833 230.333,336.167 231,334.5C 237.749,319.996 245.249,305.996 253.5,292.5 Z"/></g>
<g><path style="opacity:1" fill="#4c4c4d" d="M 132.5,286.5 C 138.844,296.836 147.844,303.836 159.5,307.5C 159.5,309.833 159.5,312.167 159.5,314.5C 158.5,314.5 157.5,314.5 156.5,314.5C 146.371,311.937 138.037,306.604 131.5,298.5C 132.483,294.702 132.817,290.702 132.5,286.5 Z"/></g>
<g><path style="opacity:1" fill="#5e5e5f" d="M 199.5,297.5 C 198.964,300.698 199.631,303.365 201.5,305.5C 187.918,315.816 172.918,318.816 156.5,314.5C 157.5,314.5 158.5,314.5 159.5,314.5C 159.5,312.167 159.5,309.833 159.5,307.5C 174.431,310.522 187.764,307.189 199.5,297.5 Z"/></g>
<g><path style="opacity:1" fill="#5b5c5c" d="M 368.5,297.5 C 368.5,300.5 368.5,303.5 368.5,306.5C 359.878,313.5 349.878,316.833 338.5,316.5C 329.153,316.605 320.819,313.938 313.5,308.5C 314.473,306.052 314.806,303.385 314.5,300.5C 333.154,311.739 351.154,310.739 368.5,297.5 Z"/></g>
<g><path style="opacity:1" fill="#3b3b3b" d="M 334.5,377.5 C 334.5,380.167 334.5,382.833 334.5,385.5C 331.833,385.5 329.167,385.5 326.5,385.5C 326.5,382.833 326.5,380.167 326.5,377.5C 329.167,377.5 331.833,377.5 334.5,377.5 Z"/></g>
<g><path style="opacity:1" fill="#454545" d="M 175.5,377.5 C 178.5,377.5 181.5,377.5 184.5,377.5C 184.5,382.167 184.5,386.833 184.5,391.5C 181.833,391.5 179.167,391.5 176.5,391.5C 176.737,390.209 176.404,389.209 175.5,388.5C 175.5,384.833 175.5,381.167 175.5,377.5 Z"/></g>
<g><path style="opacity:1" fill="#414141" d="M 223.5,377.5 C 223.5,381.167 223.5,384.833 223.5,388.5C 220.5,388.5 217.5,388.5 214.5,388.5C 214.5,384.833 214.5,381.167 214.5,377.5C 217.5,377.5 220.5,377.5 223.5,377.5 Z"/></g>
<g><path style="opacity:1" fill="#414141" d="M 287.5,377.5 C 290.5,377.5 293.5,377.5 296.5,377.5C 296.5,381.167 296.5,384.833 296.5,388.5C 293.5,388.5 290.5,388.5 287.5,388.5C 287.5,384.833 287.5,381.167 287.5,377.5 Z"/></g>
<g><path style="opacity:1" fill="#f8f8f8" d="M 175.5,377.5 C 175.5,381.167 175.5,384.833 175.5,388.5C 175.5,395.833 175.5,403.167 175.5,410.5C 167.833,410.5 160.167,410.5 152.5,410.5C 148.694,391.623 156.361,380.623 175.5,377.5 Z"/></g>
<g><path style="opacity:1" fill="#f6f6f6" d="M 213.5,414.5 C 204.167,414.5 194.833,414.5 185.5,414.5C 185.5,402.167 185.5,389.833 185.5,377.5C 194.833,377.5 204.167,377.5 213.5,377.5C 213.5,389.833 213.5,402.167 213.5,414.5 Z"/></g>
<g><path style="opacity:1" fill="#f6f6f6" d="M 224.5,377.5 C 233.167,377.5 241.833,377.5 250.5,377.5C 250.5,389.833 250.5,402.167 250.5,414.5C 241.833,414.5 233.167,414.5 224.5,414.5C 224.5,402.167 224.5,389.833 224.5,377.5 Z"/></g>
<g><path style="opacity:1" fill="#f6f6f6" d="M 260.5,377.5 C 269.167,377.5 277.833,377.5 286.5,377.5C 286.5,389.833 286.5,402.167 286.5,414.5C 277.833,414.5 269.167,414.5 260.5,414.5C 260.5,402.167 260.5,389.833 260.5,377.5 Z"/></g>
<g><path style="opacity:1" fill="#f6f6f6" d="M 325.5,414.5 C 316.167,414.5 306.833,414.5 297.5,414.5C 297.5,402.167 297.5,389.833 297.5,377.5C 306.833,377.5 316.167,377.5 325.5,377.5C 325.5,389.833 325.5,402.167 325.5,414.5 Z"/></g>
<g><path style="opacity:1" fill="#f8f8f8" d="M 335.5,377.5 C 346.801,378.293 354.635,383.959 359,394.5C 359.499,399.823 359.666,405.156 359.5,410.5C 351.5,410.5 343.5,410.5 335.5,410.5C 335.5,399.5 335.5,388.5 335.5,377.5 Z"/></g>
<g><path style="opacity:1" fill="#595959" d="M 214.5,388.5 C 217.5,388.5 220.5,388.5 223.5,388.5C 223.5,397.833 223.5,407.167 223.5,416.5C 220.5,416.5 217.5,416.5 214.5,416.5C 214.5,407.167 214.5,397.833 214.5,388.5 Z"/></g>
<g><path style="opacity:1" fill="#595959" d="M 287.5,388.5 C 290.5,388.5 293.5,388.5 296.5,388.5C 296.5,397.833 296.5,407.167 296.5,416.5C 293.5,416.5 290.5,416.5 287.5,416.5C 287.5,407.167 287.5,397.833 287.5,388.5 Z"/></g>
<g><path style="opacity:1" fill="#5f5f5f" d="M 175.5,388.5 C 176.404,389.209 176.737,390.209 176.5,391.5C 179.167,391.5 181.833,391.5 184.5,391.5C 184.5,397.5 184.5,403.5 184.5,409.5C 181.833,409.5 179.167,409.5 176.5,409.5C 176.813,413.042 176.479,416.375 175.5,419.5C 175.5,416.5 175.5,413.5 175.5,410.5C 175.5,403.167 175.5,395.833 175.5,388.5 Z"/></g>
<g><path style="opacity:1" fill="#5d5d5d" d="M 334.5,377.5 C 334.833,377.5 335.167,377.5 335.5,377.5C 335.5,388.5 335.5,399.5 335.5,410.5C 335.5,413.5 335.5,416.5 335.5,419.5C 334.521,416.375 334.187,413.042 334.5,409.5C 331.833,409.5 329.167,409.5 326.5,409.5C 326.5,401.5 326.5,393.5 326.5,385.5C 329.167,385.5 331.833,385.5 334.5,385.5C 334.5,382.833 334.5,380.167 334.5,377.5 Z"/></g>
<g><path style="opacity:1" fill="#555555" d="M 260.5,377.5 C 260.5,389.833 260.5,402.167 260.5,414.5C 260.5,416.167 260.5,417.833 260.5,419.5C 259.596,418.791 259.263,417.791 259.5,416.5C 256.833,416.5 254.167,416.5 251.5,416.5C 251.5,403.5 251.5,390.5 251.5,377.5C 254.5,377.5 257.5,377.5 260.5,377.5 Z"/></g>
<g><path style="opacity:1" fill="#e4e4e4" d="M 185.5,414.5 C 194.833,414.5 204.167,414.5 213.5,414.5C 213.5,419.5 213.5,424.5 213.5,429.5C 204.167,429.5 194.833,429.5 185.5,429.5C 185.5,424.5 185.5,419.5 185.5,414.5 Z"/></g>
<g><path style="opacity:1" fill="#e4e4e4" d="M 297.5,414.5 C 306.833,414.5 316.167,414.5 325.5,414.5C 325.5,419.5 325.5,424.5 325.5,429.5C 316.167,429.5 306.833,429.5 297.5,429.5C 297.5,424.5 297.5,419.5 297.5,414.5 Z"/></g>
<g><path style="opacity:1" fill="#444444" d="M 184.5,409.5 C 184.5,416.167 184.5,422.833 184.5,429.5C 181.5,429.5 178.5,429.5 175.5,429.5C 175.5,426.167 175.5,422.833 175.5,419.5C 176.479,416.375 176.813,413.042 176.5,409.5C 179.167,409.5 181.833,409.5 184.5,409.5 Z"/></g>
<g><path style="opacity:1" fill="#3f3f3f" d="M 214.5,416.5 C 217.5,416.5 220.5,416.5 223.5,416.5C 223.5,420.833 223.5,425.167 223.5,429.5C 220.5,429.5 217.5,429.5 214.5,429.5C 214.5,425.167 214.5,420.833 214.5,416.5 Z"/></g>
<g><path style="opacity:1" fill="#3f3f3f" d="M 287.5,416.5 C 290.5,416.5 293.5,416.5 296.5,416.5C 296.5,420.833 296.5,425.167 296.5,429.5C 293.5,429.5 290.5,429.5 287.5,429.5C 287.5,425.167 287.5,420.833 287.5,416.5 Z"/></g>
<g><path style="opacity:1" fill="#444444" d="M 326.5,409.5 C 329.167,409.5 331.833,409.5 334.5,409.5C 334.187,413.042 334.521,416.375 335.5,419.5C 335.5,422.833 335.5,426.167 335.5,429.5C 332.5,429.5 329.5,429.5 326.5,429.5C 326.5,422.833 326.5,416.167 326.5,409.5 Z"/></g>
<g><path style="opacity:1" fill="#e3e4e4" d="M 152.5,410.5 C 160.167,410.5 167.833,410.5 175.5,410.5C 175.5,413.5 175.5,416.5 175.5,419.5C 175.5,422.833 175.5,426.167 175.5,429.5C 166.799,429.398 159.966,425.732 155,418.5C 153.293,416.091 152.46,413.425 152.5,410.5 Z"/></g>
<g><path style="opacity:1" fill="#e1e1e1" d="M 223.5,377.5 C 223.833,377.5 224.167,377.5 224.5,377.5C 224.5,389.833 224.5,402.167 224.5,414.5C 233.167,414.5 241.833,414.5 250.5,414.5C 250.5,419.5 250.5,424.5 250.5,429.5C 241.5,429.5 232.5,429.5 223.5,429.5C 223.5,425.167 223.5,420.833 223.5,416.5C 223.5,407.167 223.5,397.833 223.5,388.5C 223.5,384.833 223.5,381.167 223.5,377.5 Z"/></g>
<g><path style="opacity:1" fill="#e1e1e1" d="M 286.5,377.5 C 286.833,377.5 287.167,377.5 287.5,377.5C 287.5,381.167 287.5,384.833 287.5,388.5C 287.5,397.833 287.5,407.167 287.5,416.5C 287.5,420.833 287.5,425.167 287.5,429.5C 278.5,429.5 269.5,429.5 260.5,429.5C 260.5,426.167 260.5,422.833 260.5,419.5C 260.5,417.833 260.5,416.167 260.5,414.5C 269.167,414.5 277.833,414.5 286.5,414.5C 286.5,402.167 286.5,389.833 286.5,377.5 Z"/></g>
<g><path style="opacity:1" fill="#e3e3e4" d="M 335.5,410.5 C 343.5,410.5 351.5,410.5 359.5,410.5C 355.682,422.08 347.682,428.413 335.5,429.5C 335.5,426.167 335.5,422.833 335.5,419.5C 335.5,416.5 335.5,413.5 335.5,410.5 Z"/></g>
<g><path style="opacity:1" fill="#3c3c3c" d="M 251.5,416.5 C 254.167,416.5 256.833,416.5 259.5,416.5C 259.263,417.791 259.596,418.791 260.5,419.5C 260.5,422.833 260.5,426.167 260.5,429.5C 257.5,429.5 254.5,429.5 251.5,429.5C 251.5,425.167 251.5,420.833 251.5,416.5 Z"/></g>
</svg>
